# xmcd CD database file
#
# Track frame offsets:
#	150
#	56223
#	94852
#	125236
#	143860
#	176202
#
# Disc length: 2684 seconds
#
# Revision: 0
# Processed by: cddbd v1.5.2PL0 Copyright (c) Steve Scherf et al.
# Submitted via: CDex 1.51
#
DISCID=5e0a7a06
DTITLE=John Scofield Trio - Jazzfestival Willisau/CH 3.9.2006
DYEAR=2006
DGENRE=Jazz
TTITLE0=John Scofield Trio - Heck Of A Job
TTITLE1=John Scofield Trio - Strangeness in the Night
TTITLE2=John Scofield Trio - Pretty Out
TTITLE3=John Scofield Trio - How Deep
TTITLE4=John Scofield Trio - Bag
TTITLE5=John Scofield Trio - Trio Blues
EXTD=YEAR: 2006
EXTT0=
EXTT1=
EXTT2=
EXTT3=
EXTT4=
EXTT5=
PLAYORDER=
